<svg width="16" height="15" viewBox="0 0 16 15" fill="none" xmlns="http://www.w3.org/2000/svg">
<path d="M8 0.391357C6.90909 0.391357 6.05682 0.775416 5.44318 1.54353C4.82955 2.31165 4.52273 3.29353 4.52273 4.48919C4.51515 5.9747 5.01515 7.15223 6.02273 8.0218C6.15152 8.13774 6.19697 8.28629 6.15909 8.46745L5.89773 8.98919C5.81439 9.16311 5.69129 9.29897 5.52841 9.3968C5.36553 9.49463 5.02273 9.63412 4.5 9.81528C4.47727 9.82253 3.99811 9.97108 3.0625 10.2609C2.12689 10.5508 1.62879 10.7102 1.56818 10.7392C0.931818 10.9928 0.515152 11.2573 0.318182 11.5327C0.106061 11.9892 0 13.145 0 15.0001H16C16 13.145 15.8939 11.9892 15.6818 11.5327C15.4848 11.2573 15.0682 10.9928 14.4318 10.7392C14.3712 10.7102 13.8731 10.5508 12.9375 10.2609C12.0019 9.97108 11.5227 9.82253 11.5 9.81528C10.9773 9.63412 10.6345 9.49463 10.4716 9.3968C10.3087 9.29897 10.1856 9.16311 10.1023 8.98919L9.84091 8.46745C9.80303 8.28629 9.84848 8.13774 9.97727 8.0218C10.9848 7.15223 11.4848 5.9747 11.4773 4.48919C11.4773 3.29353 11.1705 2.31165 10.5568 1.54353C9.94318 0.775416 9.09091 0.391357 8 0.391357Z" fill="#4BC3E8"/>
</svg>
