<svg width="233" height="45" viewBox="0 0 233 45" fill="none" xmlns="http://www.w3.org/2000/svg">
<g opacity="0.18">
<g clip-path="url(#clip0)">
<path d="M206.576 0V6.79688H205.485V6.32812C205.242 6.5625 205.121 6.67969 204.758 6.79688C204.515 6.91406 204.152 6.91406 203.788 6.91406C203.303 6.91406 202.939 6.79688 202.576 6.5625C202.212 6.32812 201.97 6.09375 201.727 5.74219C201.485 5.39062 201.364 4.92188 201.364 4.45312C201.364 3.98438 201.485 3.51562 201.727 3.16406C201.97 2.8125 202.212 2.57812 202.576 2.34375C202.939 2.10938 203.424 1.99219 203.788 1.99219C204.152 1.99219 204.394 1.99219 204.636 2.10938C204.879 2.22656 205.121 2.34375 205.364 2.57812V0H206.576ZM204.758 5.85938C205 5.74219 205.121 5.625 205.242 5.39062C205.364 5.15625 205.485 4.92188 205.485 4.57031C205.485 4.33594 205.364 3.98438 205.242 3.75C205.121 3.51562 205 3.39844 204.758 3.28125C204.515 3.16406 204.273 3.04688 204.03 3.04688C203.788 3.04688 203.545 3.16406 203.303 3.28125C203.061 3.39844 202.939 3.51562 202.818 3.75C202.697 3.98438 202.576 4.21875 202.576 4.57031C202.576 4.92188 202.697 5.15625 202.818 5.39062C202.939 5.625 203.061 5.74219 203.303 5.85938C203.545 5.97656 203.788 6.09375 204.03 6.09375C204.273 5.97656 204.515 5.97656 204.758 5.85938Z" fill="#4BC3E8"/>
<path d="M212.515 4.92194H208.758C208.879 5.2735 209 5.50787 209.242 5.74225C209.485 5.97662 209.849 6.09381 210.333 6.09381C210.818 6.09381 211.303 5.97662 211.667 5.62506L212.273 6.32819C212.03 6.56256 211.788 6.79694 211.424 6.91412C211.061 7.03131 210.697 7.1485 210.333 7.1485C209.849 7.1485 209.364 7.03131 208.879 6.79694C208.515 6.56256 208.152 6.32819 207.909 5.97662C207.667 5.62506 207.545 5.15631 207.545 4.68756C207.545 4.21881 207.667 3.86725 207.909 3.3985C208.152 3.04694 208.394 2.69537 208.758 2.57819C209.121 2.34381 209.606 2.22662 210.091 2.22662C210.576 2.22662 210.939 2.34381 211.303 2.57819C211.667 2.81256 211.909 3.04694 212.152 3.3985C212.394 3.75006 212.515 4.21881 212.515 4.68756C212.636 4.68756 212.636 4.68756 212.515 4.92194ZM209.242 3.28131C209 3.51569 208.879 3.75006 208.758 4.10162H211.545C211.545 3.75006 211.303 3.51569 211.061 3.28131C210.818 3.04694 210.455 2.92975 210.091 2.92975C209.727 3.04694 209.485 3.16412 209.242 3.28131Z" fill="#4BC3E8"/>
<path d="M214.091 6.79694C213.727 6.67975 213.364 6.56256 213.242 6.44537L213.727 5.62506C213.97 5.74225 214.212 5.85944 214.576 5.97662C214.939 6.09381 215.182 6.09381 215.424 6.09381C216.152 6.09381 216.394 5.97662 216.394 5.62506C216.394 5.50787 216.273 5.39069 216.152 5.2735C216.03 5.15631 215.667 5.15631 215.303 5.03912C214.939 4.92194 214.576 4.92194 214.333 4.80475C214.091 4.68756 213.848 4.57037 213.727 4.45319C213.485 4.21881 213.485 3.98444 213.485 3.63287C213.485 3.16412 213.727 2.81256 214.091 2.57819C214.455 2.34381 214.939 2.22662 215.667 2.22662C216.03 2.22662 216.273 2.22662 216.636 2.34381C217 2.461 217.242 2.461 217.485 2.69537L217 3.51569C216.636 3.28131 216.152 3.16412 215.667 3.16412C215.303 3.16412 215.061 3.16412 214.939 3.28131C214.818 3.3985 214.697 3.51569 214.697 3.63287C214.697 3.86725 214.818 3.98444 214.939 3.98444C215.182 4.10162 215.424 4.10162 215.788 4.21881C216.152 4.21881 216.515 4.336 216.758 4.45319C217 4.57037 217.242 4.68756 217.364 4.80475C217.485 5.03912 217.606 5.2735 217.606 5.62506C217.606 6.09381 217.364 6.44537 217 6.67975C216.636 6.91412 216.03 7.03131 215.424 7.03131C214.818 6.91412 214.455 6.91412 214.091 6.79694Z" fill="#4BC3E8"/>
<path d="M218.455 1.17188C218.333 1.05469 218.212 0.9375 218.212 0.703125C218.212 0.46875 218.333 0.351562 218.455 0.234375C218.576 0.117188 218.818 0 218.939 0C219.182 0 219.303 0.117188 219.424 0.234375C219.546 0.351562 219.667 0.46875 219.667 0.703125C219.667 0.9375 219.546 1.05469 219.424 1.17188C219.303 1.28906 219.061 1.40625 218.939 1.40625C218.697 1.40625 218.576 1.28906 218.455 1.17188ZM218.333 2.22656H219.424V6.91406H218.333V2.22656Z" fill="#4BC3E8"/>
<path d="M225.848 2.22662V6.211C225.848 7.85162 225 8.67194 223.182 8.67194C222.697 8.67194 222.212 8.67194 221.848 8.55475C221.485 8.43756 221.121 8.32037 220.758 8.086L221.242 7.26569C221.485 7.38287 221.727 7.61725 222.091 7.61725C222.455 7.73444 222.697 7.73444 223.061 7.73444C223.545 7.73444 224.03 7.61725 224.273 7.38287C224.515 7.1485 224.636 6.79694 224.636 6.32819V6.09381C224.394 6.32819 224.152 6.44537 223.909 6.56256C223.667 6.67975 223.303 6.67975 222.939 6.67975C222.455 6.67975 222.091 6.56256 221.727 6.44537C221.364 6.211 221.121 5.97662 220.879 5.62506C220.636 5.2735 220.515 4.92194 220.515 4.45319C220.515 3.98444 220.636 3.63287 220.879 3.28131C221.121 2.92975 221.364 2.69537 221.727 2.461C222.091 2.22662 222.576 2.22662 222.939 2.22662C223.303 2.22662 223.667 2.22662 223.909 2.34381C224.152 2.461 224.394 2.57819 224.636 2.81256V2.22662H225.848ZM224.273 5.39069C224.515 5.15631 224.636 4.80475 224.636 4.45319C224.636 4.10162 224.515 3.75006 224.273 3.51569C224.03 3.28131 223.667 3.16412 223.182 3.16412C222.697 3.16412 222.333 3.28131 222.091 3.51569C221.848 3.75006 221.727 4.10162 221.727 4.45319C221.727 4.80475 221.848 5.15631 222.091 5.39069C222.333 5.62506 222.697 5.74225 223.182 5.74225C223.667 5.74225 224.03 5.62506 224.273 5.39069Z" fill="#4BC3E8"/>
<path d="M231.545 2.69537C231.909 3.04694 232.152 3.51569 232.152 4.21881V6.91412H230.939V4.336C230.939 3.86725 230.818 3.63287 230.697 3.3985C230.455 3.16412 230.212 3.04694 229.849 3.04694C229.485 3.04694 229.121 3.16412 228.879 3.3985C228.636 3.63287 228.515 3.98444 228.515 4.45319V6.79694H227.303V2.10944H228.394V2.69537C228.636 2.461 228.879 2.34381 229.121 2.22662C229.364 2.10944 229.727 2.10944 230.091 2.10944C230.697 2.10944 231.182 2.34381 231.545 2.69537Z" fill="#4BC3E8"/>
<path d="M77 3.39844V0H84.2727C88.0303 0 90.8182 2.10938 90.8182 5.625V11.4844C90.8182 13.8281 89.7273 15.4688 87.6667 16.4062C89.9697 17.3438 91.0606 18.9844 91.0606 21.4453V28.3594C91.0606 31.875 88.2727 33.9844 84.6364 33.9844H77V30.4688H77.9697V3.39844H77ZM82.3333 14.7656H84.2727C85.4848 14.7656 86.4545 13.9453 86.4545 12.5391V5.50781C86.4545 4.21875 85.4848 3.39844 84.2727 3.39844H82.3333V14.7656ZM82.3333 18.1641V30.4688H84.3939C85.6061 30.4688 86.5758 29.6484 86.5758 28.2422V20.2734C86.5758 18.9844 85.6061 18.0469 84.3939 18.0469H82.3333V18.1641Z" fill="#4BC3E8"/>
<path d="M94.2121 17.8125V11.25C95.9091 10.0781 97.9697 9.49219 100.636 9.49219C104.273 9.49219 107.061 11.6016 107.061 15.1172V30.4687H108.03V33.8672H102.697V31.875C101.485 33.3984 99.9091 34.1016 97.9697 34.1016C95.7879 34.1016 94.0909 32.5781 94.0909 30.2344V25.3125C94.0909 21.9141 96.2727 20.1562 99.6667 19.6875L102.697 19.3359V14.8828C102.697 13.5937 101.848 12.6562 100.636 12.6562C99.9091 12.6562 99.1818 12.8906 98.8182 13.125L98.5758 13.2422V17.5781H94.2121V17.8125ZM102.697 22.8516L100.636 23.0859C99.1818 23.2031 98.4545 24.0234 98.4545 25.3125V29.0625C98.4545 30 99.0606 30.7031 99.9091 30.7031C101.364 30.7031 102.697 29.6484 102.697 27.8906V22.8516Z" fill="#4BC3E8"/>
<path d="M110.576 17.8126V9.72662H123.303V11.7188L115.667 30.4688H120.03V25.7813H123.424V33.8673H110.576V31.8751L118.333 13.0079H113.849V17.6954H110.576V17.8126Z" fill="#4BC3E8"/>
<path d="M126.212 33.8672V30.4688H127.182V13.125H126.212V9.72656H131.545V30.4688H132.515V33.8672H126.212ZM127.303 5.27344V0H131.667V5.27344H127.303Z" fill="#4BC3E8"/>
<path d="M135.182 3.39844V0H140.515V30.4688H141.485V33.8672H135.182V30.4688H136.152V3.39844H135.182Z" fill="#4BC3E8"/>
<path d="M157.364 23.0859H148.758V28.4766C148.758 29.8828 149.606 30.7031 150.818 30.7031C152.03 30.7031 153 29.8828 153 28.4766V25.7813H157.364V28.5938C157.364 32.1094 154.576 34.2188 150.818 34.2188C147.182 34.2188 144.394 32.1094 144.394 28.5938V15C144.394 11.4844 147.182 9.375 150.818 9.375C154.455 9.375 157.364 11.4844 157.364 15V23.0859ZM148.758 19.8047H153V15.1172C153 13.7109 152.152 12.8906 150.818 12.8906C149.606 12.8906 148.758 13.7109 148.758 15.1172V19.8047Z" fill="#4BC3E8"/>
<path d="M169 13.1251V9.72662H175.303V13.1251H174.091L170.091 33.9844H164.394L160.394 13.1251H159.182V9.72662H164.273L167.182 30.3516H167.303L169.848 13.0079H169V13.1251Z" fill="#4BC3E8"/>
<path d="M185.606 13.4766C185 13.0079 184.394 12.8907 183.667 12.8907C182.576 12.8907 181.727 13.711 181.727 15.0001V17.5782C181.727 18.8672 183.788 19.8047 185.849 20.3907C188.03 20.9766 190.091 22.6172 190.091 25.3126V28.5938C190.091 31.9922 187.303 34.1016 183.667 34.1016C181.364 34.1016 179.061 33.2813 178.091 32.6954L177.364 32.2266V25.7813H181.727V30.1172C182.333 30.586 182.939 30.7032 183.788 30.7032C185 30.7032 185.849 29.8829 185.849 28.5938V25.3126C185.849 22.2657 177.485 23.4376 177.485 17.461V14.7657C177.485 11.4844 180.152 9.25787 183.788 9.25787C186.091 9.25787 188.394 10.0782 189.364 10.6641L190.091 11.1329V17.6954H185.727V13.4766H185.606Z" fill="#4BC3E8"/>
<path d="M193 33.8672V30.4688H193.97V3.39844H193V0H198.333V19.8047H199.667L202.091 13.125H201.242V9.72656H207.545V13.125H206.333L202.818 21.4453L206.455 30.5859H207.667V33.9844H203.182L199.667 23.0859H198.333V30.4688H199.303V33.8672H193Z" fill="#4BC3E8"/>
<path d="M218.212 13.1251V9.72662H223.545V39.4923C223.545 43.0079 220.758 45.1173 217.121 45.1173C214.818 45.1173 212.394 44.4141 211.424 43.711L210.697 43.2423V37.5001H215.061V41.0157C215.667 41.4844 216.273 41.6016 217.121 41.6016C218.212 41.6016 219.182 40.7813 219.182 39.3751V31.7579C217.97 33.2813 216.394 33.9844 214.576 33.9844C212.273 33.9844 210.576 32.461 210.576 30.0001V13.1251H209.606V9.72662H214.939V29.0626C214.939 30.1173 215.667 30.7032 216.515 30.7032C218.091 30.7032 219.182 29.6485 219.182 27.8907V13.1251H218.212Z" fill="#4BC3E8"/>
<path d="M226.576 33.8673V30.4688H227.667V13.1251H226.576V9.72662H232.03V30.4688H233V33.8673H226.576Z" fill="#4BC3E8"/>
</g>
<path d="M0.468 29.6798C0.468 29.1598 0.556 28.6518 0.732 28.1558C0.916 27.6518 1.18 27.1958 1.524 26.7878C1.876 26.3718 2.304 26.0438 2.808 25.8038C3.312 25.5558 3.884 25.4318 4.524 25.4318C5.284 25.4318 5.936 25.6078 6.48 25.9598C7.024 26.3038 7.428 26.7478 7.692 27.2918L6.84 27.8438C6.672 27.4838 6.456 27.1998 6.192 26.9918C5.936 26.7758 5.656 26.6238 5.352 26.5358C5.056 26.4478 4.764 26.4038 4.476 26.4038C4.004 26.4038 3.584 26.4998 3.216 26.6918C2.856 26.8838 2.552 27.1398 2.304 27.4598C2.056 27.7798 1.868 28.1398 1.74 28.5398C1.62 28.9318 1.56 29.3278 1.56 29.7278C1.56 30.1678 1.632 30.5918 1.776 30.9998C1.928 31.4078 2.136 31.7678 2.4 32.0798C2.664 32.3918 2.976 32.6398 3.336 32.8238C3.696 33.0078 4.088 33.0998 4.512 33.0998C4.808 33.0998 5.112 33.0478 5.424 32.9438C5.736 32.8398 6.028 32.6798 6.3 32.4638C6.572 32.2398 6.788 31.9518 6.948 31.5998L7.848 32.0918C7.672 32.5158 7.4 32.8758 7.032 33.1718C6.664 33.4678 6.252 33.6918 5.796 33.8438C5.348 33.9958 4.904 34.0718 4.464 34.0718C3.88 34.0718 3.344 33.9478 2.856 33.6998C2.368 33.4438 1.944 33.1078 1.584 32.6918C1.232 32.2678 0.956 31.7958 0.756 31.2758C0.564 30.7478 0.468 30.2158 0.468 29.6798ZM12.4637 28.6598C11.9357 28.6678 11.4677 28.8038 11.0597 29.0678C10.6597 29.3238 10.3757 29.6798 10.2077 30.1358V33.9998H9.15169V27.7358H10.1357V29.1878C10.3517 28.7558 10.6357 28.4078 10.9877 28.1438C11.3477 27.8718 11.7237 27.7198 12.1157 27.6878C12.1957 27.6878 12.2637 27.6878 12.3197 27.6878C12.3757 27.6878 12.4237 27.6918 12.4637 27.6998V28.6598ZM16.2624 34.1198C15.6384 34.1198 15.0864 33.9718 14.6064 33.6758C14.1264 33.3798 13.7504 32.9838 13.4784 32.4878C13.2064 31.9918 13.0704 31.4518 13.0704 30.8678C13.0704 30.2758 13.2064 29.7358 13.4784 29.2478C13.7504 28.7598 14.1264 28.3678 14.6064 28.0718C15.0944 27.7758 15.6504 27.6278 16.2744 27.6278C16.9064 27.6278 17.4544 27.7798 17.9184 28.0838C18.3904 28.3798 18.7544 28.7718 19.0104 29.2598C19.2744 29.7398 19.4064 30.2598 19.4064 30.8198C19.4064 30.9958 19.3984 31.1318 19.3824 31.2278H14.1864C14.2184 31.6358 14.3304 31.9998 14.5224 32.3198C14.7224 32.6318 14.9784 32.8798 15.2904 33.0638C15.6024 33.2398 15.9384 33.3278 16.2984 33.3278C16.6824 33.3278 17.0424 33.2318 17.3784 33.0398C17.7224 32.8478 17.9584 32.5958 18.0864 32.2838L18.9984 32.5358C18.7984 32.9998 18.4504 33.3798 17.9544 33.6758C17.4584 33.9718 16.8944 34.1198 16.2624 34.1198ZM14.1504 30.4958H18.4224C18.3904 30.0878 18.2744 29.7278 18.0744 29.4158C17.8744 29.1038 17.6184 28.8598 17.3064 28.6838C16.9944 28.5078 16.6504 28.4198 16.2744 28.4198C15.9064 28.4198 15.5664 28.5078 15.2544 28.6838C14.9424 28.8598 14.6864 29.1038 14.4864 29.4158C14.2944 29.7278 14.1824 30.0878 14.1504 30.4958ZM20.2083 32.1878C20.2083 31.7878 20.3203 31.4438 20.5443 31.1558C20.7763 30.8598 21.0923 30.6318 21.4923 30.4718C21.8923 30.3118 22.3563 30.2318 22.8843 30.2318C23.1643 30.2318 23.4603 30.2558 23.7723 30.3038C24.0843 30.3438 24.3603 30.4078 24.6003 30.4958V30.0398C24.6003 29.5598 24.4563 29.1838 24.1683 28.9118C23.8803 28.6318 23.4723 28.4918 22.9443 28.4918C22.6003 28.4918 22.2683 28.5558 21.9483 28.6838C21.6363 28.8038 21.3043 28.9798 20.9523 29.2118L20.5683 28.4678C20.9763 28.1878 21.3843 27.9798 21.7923 27.8438C22.2003 27.6998 22.6243 27.6278 23.0643 27.6278C23.8643 27.6278 24.4963 27.8518 24.9603 28.2998C25.4243 28.7398 25.6563 29.3558 25.6563 30.1478V32.7998C25.6563 33.0478 25.7683 33.1758 25.9923 33.1838V33.9998C25.8883 34.0158 25.7963 34.0278 25.7163 34.0358C25.6443 34.0438 25.5843 34.0478 25.5363 34.0478C25.2883 34.0478 25.1003 33.9798 24.9723 33.8438C24.8523 33.7078 24.7843 33.5638 24.7683 33.4118L24.7443 33.0158C24.4723 33.3678 24.1163 33.6398 23.6763 33.8318C23.2363 34.0238 22.8003 34.1198 22.3683 34.1198C21.9523 34.1198 21.5803 34.0358 21.2523 33.8678C20.9243 33.6918 20.6683 33.4598 20.4843 33.1718C20.3003 32.8758 20.2083 32.5478 20.2083 32.1878ZM24.2883 32.6318C24.3843 32.5198 24.4603 32.4078 24.5163 32.2958C24.5723 32.1758 24.6003 32.0758 24.6003 31.9958V31.2158C24.0883 31.0158 23.5603 30.9158 23.0163 30.9158C22.4803 30.9158 22.0443 31.0238 21.7083 31.2398C21.3803 31.4478 21.2163 31.7358 21.2163 32.1038C21.2163 32.3038 21.2683 32.4998 21.3723 32.6918C21.4843 32.8758 21.6443 33.0278 21.8523 33.1478C22.0683 33.2678 22.3323 33.3278 22.6443 33.3278C22.9723 33.3278 23.2843 33.2638 23.5803 33.1358C23.8763 32.9998 24.1123 32.8318 24.2883 32.6318ZM30.6579 33.6878C30.5299 33.7438 30.3259 33.8238 30.0459 33.9278C29.7739 34.0318 29.4699 34.0838 29.1339 34.0838C28.7499 34.0838 28.4179 33.9798 28.1379 33.7718C27.8579 33.5558 27.7179 33.2238 27.7179 32.7758V28.5638H26.8659V27.7358H27.7179V25.6478H28.7739V27.7358H30.1779V28.5638H28.7739V32.4518C28.7899 32.6758 28.8659 32.8438 29.0019 32.9558C29.1379 33.0598 29.2979 33.1118 29.4819 33.1118C29.6899 33.1118 29.8819 33.0758 30.0579 33.0038C30.2339 32.9318 30.3499 32.8798 30.4059 32.8478L30.6579 33.6878ZM34.4467 34.1198C33.8227 34.1198 33.2707 33.9718 32.7907 33.6758C32.3107 33.3798 31.9347 32.9838 31.6627 32.4878C31.3907 31.9918 31.2547 31.4518 31.2547 30.8678C31.2547 30.2758 31.3907 29.7358 31.6627 29.2478C31.9347 28.7598 32.3107 28.3678 32.7907 28.0718C33.2787 27.7758 33.8347 27.6278 34.4587 27.6278C35.0907 27.6278 35.6387 27.7798 36.1027 28.0838C36.5747 28.3798 36.9387 28.7718 37.1947 29.2598C37.4587 29.7398 37.5907 30.2598 37.5907 30.8198C37.5907 30.9958 37.5827 31.1318 37.5667 31.2278H32.3707C32.4027 31.6358 32.5147 31.9998 32.7067 32.3198C32.9067 32.6318 33.1627 32.8798 33.4747 33.0638C33.7867 33.2398 34.1227 33.3278 34.4827 33.3278C34.8667 33.3278 35.2267 33.2318 35.5627 33.0398C35.9067 32.8478 36.1427 32.5958 36.2707 32.2838L37.1827 32.5358C36.9827 32.9998 36.6347 33.3798 36.1387 33.6758C35.6427 33.9718 35.0787 34.1198 34.4467 34.1198ZM32.3347 30.4958H36.6067C36.5747 30.0878 36.4587 29.7278 36.2587 29.4158C36.0587 29.1038 35.8027 28.8598 35.4907 28.6838C35.1787 28.5078 34.8347 28.4198 34.4587 28.4198C34.0907 28.4198 33.7507 28.5078 33.4387 28.6838C33.1267 28.8598 32.8707 29.1038 32.6707 29.4158C32.4787 29.7278 32.3667 30.0878 32.3347 30.4958ZM38.4765 30.8798C38.4765 30.2878 38.5965 29.7478 38.8365 29.2598C39.0845 28.7638 39.4205 28.3678 39.8445 28.0718C40.2765 27.7758 40.7685 27.6278 41.3205 27.6278C41.8245 27.6278 42.2765 27.7598 42.6765 28.0238C43.0765 28.2878 43.3885 28.6078 43.6125 28.9838V25.2398H44.6685V32.7998C44.6685 33.0478 44.7805 33.1758 45.0045 33.1838V33.9998C44.8045 34.0318 44.6485 34.0478 44.5365 34.0478C44.3285 34.0478 44.1445 33.9758 43.9845 33.8318C43.8325 33.6878 43.7565 33.5278 43.7565 33.3518V32.8238C43.5085 33.2238 43.1765 33.5398 42.7605 33.7718C42.3445 34.0038 41.9125 34.1198 41.4645 34.1198C40.8885 34.1198 40.3725 33.9718 39.9165 33.6758C39.4685 33.3718 39.1165 32.9758 38.8605 32.4878C38.6045 31.9918 38.4765 31.4558 38.4765 30.8798ZM43.6125 31.8038V30.0038C43.5165 29.7318 43.3605 29.4878 43.1445 29.2718C42.9285 29.0478 42.6845 28.8718 42.4125 28.7438C42.1485 28.6078 41.8845 28.5398 41.6205 28.5398C41.2125 28.5398 40.8525 28.6518 40.5405 28.8758C40.2365 29.0998 39.9965 29.3918 39.8205 29.7518C39.6525 30.1118 39.5685 30.4918 39.5685 30.8918C39.5685 31.3078 39.6605 31.6918 39.8445 32.0438C40.0365 32.3958 40.2965 32.6798 40.6245 32.8958C40.9525 33.1038 41.3165 33.2078 41.7165 33.2078C41.9725 33.2078 42.2365 33.1478 42.5085 33.0278C42.7805 32.8998 43.0205 32.7278 43.2285 32.5118C43.4365 32.2958 43.5645 32.0598 43.6125 31.8038ZM52.9225 34.1198C52.4345 34.1198 51.9905 33.9998 51.5905 33.7598C51.1905 33.5198 50.8745 33.2078 50.6425 32.8238V33.9998H49.7065V25.2398H50.7625V28.9838C51.0265 28.5758 51.3505 28.2478 51.7345 27.9998C52.1185 27.7518 52.5665 27.6278 53.0785 27.6278C53.5105 27.6278 53.8985 27.7198 54.2425 27.9038C54.5865 28.0798 54.8785 28.3238 55.1185 28.6358C55.3665 28.9398 55.5545 29.2878 55.6825 29.6798C55.8185 30.0638 55.8865 30.4678 55.8865 30.8918C55.8865 31.4758 55.7545 32.0158 55.4905 32.5118C55.2345 32.9998 54.8825 33.3918 54.4345 33.6878C53.9865 33.9758 53.4825 34.1198 52.9225 34.1198ZM52.6585 33.2078C53.0825 33.2078 53.4545 33.0998 53.7745 32.8838C54.0945 32.6598 54.3465 32.3718 54.5305 32.0198C54.7145 31.6678 54.8065 31.2918 54.8065 30.8918C54.8065 30.4838 54.7185 30.0998 54.5425 29.7398C54.3745 29.3798 54.1345 29.0918 53.8225 28.8758C53.5185 28.6518 53.1625 28.5398 52.7545 28.5398C52.3065 28.5398 51.9065 28.6838 51.5545 28.9718C51.2105 29.2598 50.9465 29.6038 50.7625 30.0038V31.8158C50.8185 32.0798 50.9465 32.3198 51.1465 32.5358C51.3545 32.7438 51.5945 32.9078 51.8665 33.0278C52.1465 33.1478 52.4105 33.2078 52.6585 33.2078ZM57.3802 35.7038C57.4842 35.7118 57.5882 35.7198 57.6922 35.7278C57.7962 35.7438 57.8762 35.7518 57.9322 35.7518C58.0602 35.7518 58.1722 35.7078 58.2682 35.6198C58.3642 35.5318 58.4682 35.3598 58.5802 35.1038C58.7002 34.8558 58.8522 34.4878 59.0362 33.9998L56.3842 27.7358H57.5002L59.6122 32.9318L61.5202 27.7358H62.5642L59.5162 35.6438C59.4122 35.9238 59.2242 36.1678 58.9522 36.3758C58.6882 36.5918 58.3322 36.6998 57.8842 36.6998C57.8122 36.6998 57.7362 36.6958 57.6562 36.6878C57.5842 36.6798 57.4922 36.6638 57.3802 36.6398V35.7038Z" fill="#4BC3E8"/>
</g>
<defs>
<clipPath id="clip0">
<rect width="156" height="45" fill="white" transform="translate(77)"/>
</clipPath>
</defs>
</svg>
