<svg width="94" height="24" viewBox="0 0 94 24" fill="none" xmlns="http://www.w3.org/2000/svg">
<path d="M11.3196 8.37068C13.98 8.37068 16.0144 9.0508 17.475 10.5157C18.9356 11.9282 19.6659 13.707 19.6659 15.7997C19.6659 18.1016 18.8835 19.985 17.2142 21.5545C15.5971 23.0717 13.3019 23.8564 10.5372 23.8564H0V0H14.3973L17.1099 6.06875H6.83352V8.37068H11.3196ZM6.83352 13.9686V17.9447H10.6415C12.0499 17.9447 12.8324 17.1076 12.8324 16.0089C12.8324 14.8056 11.9978 13.9686 10.5893 13.9686H6.83352Z" fill="#0E5A9E"/>
<path d="M16.7969 0H24.152L29.3163 12.2944L34.4806 0H43.2963V23.8564H36.7758V10.411L31.0377 23.8564H27.4384L16.7969 0Z" fill="#0E5A9E"/>
<path d="M83.4107 2.24962C86.384 2.24962 88.8357 3.19132 90.9223 5.02241C92.9567 6.8535 94 9.15544 94 11.8759C94 14.5964 92.9567 16.8983 90.9223 18.7294C88.8879 20.5605 86.384 21.5022 83.4107 21.5022V23.8041H76.5771V21.5022C73.6038 21.5022 71.1521 20.6128 69.0655 18.7294C67.0311 16.8983 65.9878 14.5964 65.9878 11.8236C65.9878 9.10312 67.0311 6.80118 69.0655 4.97009C71.0999 3.13901 73.6038 2.1973 76.5771 2.1973V0H83.4107V2.24962ZM76.525 8.423C74.1776 8.423 72.6127 9.94019 72.6127 11.9282C72.6127 14.0209 74.1254 15.4334 76.525 15.4334V8.423ZM83.4107 15.3811C85.758 15.3811 87.323 13.8639 87.323 11.8759C87.323 9.78324 85.8102 8.37068 83.4107 8.37068V15.3811Z" fill="#0E5A9E"/>
<path d="M60.7192 11.5097L56.7547 6.2257L52.8424 0H45.0177L52.7381 11.6666L44.6526 23.8564H52.3207L56.6504 17.1076L60.98 23.8564H68.7525L60.7192 11.5097Z" fill="#0E5A9E"/>
<path d="M68.3873 0H60.7192L56.7547 6.2257H64.2142L68.3873 0Z" fill="#4BC3E8"/>
</svg>
