<svg width="154" height="56" viewBox="0 0 154 56" fill="none" xmlns="http://www.w3.org/2000/svg">
<path d="M18.5552 13.7213C22.9162 13.7213 26.251 14.8361 28.6452 17.2374C31.0394 19.5528 32.2365 22.4686 32.2365 25.8989C32.2365 29.6723 30.9539 32.7596 28.2177 35.3323C25.5669 37.8193 21.8046 39.1057 17.2726 39.1057H0V0H23.6002L28.0466 9.94793H11.2016V13.7213H18.5552ZM11.2016 22.8974V29.415H17.4436C19.7524 29.415 21.035 28.0429 21.035 26.242C21.035 24.2695 19.6669 22.8974 17.3581 22.8974H11.2016Z" fill="#0E5A9E"/>
<path d="M27.5336 0H39.5902L48.0555 20.1531L56.5208 0H70.9716V39.1057H60.2831V17.0658L50.8773 39.1057H44.9772L27.5336 0Z" fill="#0E5A9E"/>
<path d="M136.727 3.6876C141.601 3.6876 145.62 5.23124 149.041 8.23277C152.375 11.2343 154.086 15.0077 154.086 19.4671C154.086 23.9265 152.375 27.6998 149.041 30.7014C145.706 33.7029 141.601 35.2465 136.727 35.2465V39.0199H125.526V35.2465C120.652 35.2465 116.633 33.7887 113.213 30.7014C109.878 27.6998 108.168 23.9265 108.168 19.3813C108.168 14.9219 109.878 11.1485 113.213 8.14701C116.548 5.14548 120.652 3.60184 125.526 3.60184V0H136.727V3.6876ZM125.44 13.807C121.592 13.807 119.027 16.294 119.027 19.5528C119.027 22.9832 121.507 25.2986 125.44 25.2986V13.807ZM136.727 25.2129C140.575 25.2129 143.141 22.7259 143.141 19.4671C143.141 16.0368 140.661 13.7213 136.727 13.7213V25.2129Z" fill="#0E5A9E"/>
<path d="M0 46.3093H6.15658V47.5099H1.45364V49.4824H3.84786C4.78845 49.4824 5.55802 49.6539 5.98556 50.0827C6.4131 50.5115 6.75514 51.026 6.75514 51.7978C6.75514 52.5697 6.49861 53.17 5.90006 53.5988C5.38701 54.0276 4.61743 54.2848 3.59134 54.2848H0V46.3093ZM3.50583 53.17C4.10439 53.17 4.53193 53.0842 4.78845 52.8269C5.04497 52.5697 5.21599 52.3124 5.21599 51.8836C5.21599 51.026 4.61743 50.683 3.50583 50.683H1.45364V53.17H3.50583Z" fill="#112A3D"/>
<path d="M10.603 46.3093H12.0567V51.9694L16.3321 46.3093H17.7002V54.2848H16.2466V48.6248L11.9712 54.2848H10.603V46.3093Z" fill="#112A3D"/>
<path d="M23.7712 53.9419C23.0872 53.5988 22.5741 53.0843 22.2321 52.484C21.8901 51.8837 21.6335 51.1976 21.6335 50.34C21.6335 49.5682 21.8046 48.8821 22.2321 48.1961C22.5741 47.5958 23.0872 47.0812 23.7712 46.7382C24.4553 46.3951 25.1394 46.2236 25.9945 46.2236C26.8495 46.2236 27.5336 46.3951 28.2177 46.7382C28.9017 47.0812 29.4148 47.5958 29.7568 48.1961C30.0988 48.7964 30.3554 49.4824 30.3554 50.34C30.3554 51.1118 30.1843 51.7979 29.7568 52.484C29.4148 53.0843 28.9017 53.5988 28.2177 53.9419C27.5336 54.2849 26.8495 54.4564 25.9945 54.4564C25.1394 54.4564 24.3698 54.2849 23.7712 53.9419ZM27.3626 52.7412C27.7901 52.484 28.1322 52.1409 28.3887 51.7121C28.6452 51.2834 28.7307 50.7688 28.7307 50.2543C28.7307 49.7397 28.6452 49.2252 28.3887 48.7964C28.1322 48.3676 27.7901 48.0245 27.3626 47.7673C26.935 47.51 26.422 47.4242 25.9089 47.4242C25.3959 47.4242 24.8829 47.51 24.4553 47.7673C24.0278 48.0245 23.6857 48.3676 23.4292 48.7964C23.1727 49.2252 23.0872 49.7397 23.0872 50.2543C23.0872 50.7688 23.1727 51.2834 23.4292 51.7121C23.6857 52.1409 24.0278 52.484 24.4553 52.7412C24.8829 52.9985 25.3959 53.0843 25.9089 53.0843C26.422 53.0843 26.935 52.9985 27.3626 52.7412Z" fill="#112A3D"/>
<path d="M41.4715 54.2848V48.9678L38.8207 53.3415H38.1367L35.4859 49.0536V54.2848H34.1178V46.3093H35.3149L38.4787 51.6263L41.557 46.3093H42.7541V54.2848H41.4715Z" fill="#112A3D"/>
<path d="M53.357 53.0842V54.2848H47.3715V46.3093H53.186V47.5099H48.8251V49.5681H52.673V50.7687H48.8251V52.9985H53.357V53.0842Z" fill="#112A3D"/>
<path d="M65.7557 53.0842V56H64.3876V54.2848H58.3165V56H56.9484V53.0842H57.2904C57.8034 53.0842 58.1455 52.6554 58.3165 51.9694C58.4875 51.2833 58.6585 50.2542 58.6585 48.8821L58.744 46.3093H64.5586V52.9985H65.7557V53.0842ZM59.6846 51.6263C59.5136 52.3124 59.3426 52.8269 59.0861 53.0842H63.1049V47.5957H60.0267L59.9411 48.9678C59.9411 50.0827 59.8556 50.9403 59.6846 51.6263Z" fill="#112A3D"/>
<path d="M70.2877 46.3093L72.1688 48.9678L74.05 46.3093H75.7602L73.1094 50.1684L76.0167 54.2848H74.3065L72.1688 51.4548L70.1167 54.2848H68.4065L71.3138 50.1684L68.5775 46.3093H70.2877Z" fill="#112A3D"/>
<path d="M79.2661 46.3093H80.7198V51.9694L84.9952 46.3093H86.3633V54.2848H84.9096V48.6248L80.6342 54.2848H79.2661V46.3093Z" fill="#112A3D"/>
<path d="M98.1632 54.2848V48.9678L95.5125 53.3415H94.9139L92.2631 49.0536V54.2848H90.895V46.3093H92.0921L95.2559 51.6263L98.3342 46.3093H99.5313V54.2848H98.1632Z" fill="#112A3D"/>
<path d="M104.063 49.5681H106.372V51.7121H104.063V49.5681Z" fill="#4BC3E8"/>
<path d="M119.027 52.8269C118.258 53.4272 117.232 53.7702 115.949 53.856V54.7136H114.581V53.856C113.213 53.7702 112.187 53.4272 111.502 52.8269C110.733 52.2266 110.391 51.369 110.391 50.3399C110.391 49.3108 110.733 48.4532 111.502 47.8529C112.272 47.2526 113.298 46.9096 114.581 46.8238V46.052H115.949V46.8238C117.317 46.9096 118.343 47.2526 119.027 47.8529C119.797 48.4532 120.139 49.3108 120.139 50.3399C120.139 51.369 119.797 52.2266 119.027 52.8269ZM112.529 51.9693C113.042 52.3981 113.726 52.5696 114.581 52.6554V48.0244C112.7 48.196 111.845 48.9678 111.845 50.3399C111.845 51.026 112.101 51.5405 112.529 51.9693ZM118.001 51.9693C118.429 51.5405 118.685 51.026 118.685 50.3399C118.685 49.6538 118.429 49.1393 118.001 48.7105C117.488 48.2817 116.804 48.1102 115.949 48.0244V52.6554C116.889 52.5696 117.574 52.3123 118.001 51.9693Z" fill="#112A3D"/>
<path d="M129.117 52.4838H125.098L124.329 54.3705H122.79L126.381 46.395H127.835L131.426 54.3705H129.972L129.117 52.4838ZM128.69 51.2832L127.15 47.7672L125.697 51.2832H128.69Z" fill="#112A3D"/>
<path d="M140.062 46.6524C140.575 46.9096 141.003 47.1669 141.259 47.5957C141.516 48.0245 141.687 48.539 141.687 49.1393C141.687 49.7396 141.516 50.2542 141.259 50.683C141.003 51.1118 140.575 51.4548 140.062 51.6263C139.549 51.8836 138.951 51.9694 138.267 51.9694H136.471V54.2848H135.017V46.3093H138.267C138.951 46.3093 139.549 46.4808 140.062 46.6524ZM139.635 50.34C139.977 50.0827 140.148 49.6539 140.148 49.1393C140.148 48.6248 139.977 48.196 139.635 47.9387C139.293 47.6815 138.78 47.5099 138.181 47.5099H136.471V50.683H138.181C138.865 50.7687 139.293 50.5972 139.635 50.34Z" fill="#112A3D"/>
<path d="M152.632 54.2848V48.9678L149.981 53.3415H149.297L146.646 49.0536V54.2848H145.364V46.3093H146.561L149.725 51.6263L152.803 46.3093H154V54.2848H152.632Z" fill="#112A3D"/>
<path d="M99.5313 18.8668L93.0327 10.2052L86.6196 0H73.7934L86.4486 19.124L73.1948 39.1057H85.7645L92.8617 28.0429L99.9589 39.1057H112.7L99.5313 18.8668Z" fill="#0E5A9E"/>
<path d="M112.101 0H99.5313L93.0327 10.2052H105.26L112.101 0Z" fill="#4BC3E8"/>
</svg>
